Coordinates
version=1
nRows=10
nColumns=27
inDegrees=yes

Units are S.I. units (second, meters, Newtons, ...)
If the header above contains a line with 'inDegrees', this indicates whether rotational values are in degrees (yes) or radians (no).

endheader
time	pelvis_rotation	pelvis_tilt	pelvis_list	pelvis_tx	pelvis_ty	pelvis_tz	hip_flexion_r	hip_adduction_r	hip_rotation_r	knee_angle_r	knee_rotation_r	knee_adduction_r	knee_angle_r_beta	ankle_angle_r	subtalar_angle_r	mtp_angle_r	hip_flexion_l	hip_adduction_l	hip_rotation_l	knee_angle_l	knee_rotation_l	knee_adduction_l	knee_angle_l_beta	ankle_angle_l	subtalar_angle_l	mtp_angle_l
      3.91500000	      0.73821067	    -23.38246009	      5.37621667	      0.03771806	      0.79905046	     -1.16974610	     52.91328424	    -33.73163533	    -13.22732002	     43.40524856	      0.00000000	      5.74138375	      0.75756450	      5.36532091	      0.00000000	      0.00000000	     49.50794135	    -19.15099213	     -5.70254408	     37.20506180	      0.00000000	     -0.41118449	      0.64935083	      4.06171411	      0.00000000	      0.00000000
      3.92000000	      0.81286011	    -23.42295062	      5.55051053	      0.03690865	      0.79780371	     -1.16982798	     53.41307910	    -34.03372146	    -13.07322121	     43.90184389	      0.00000000	      6.05575078	      0.76623172	      5.48760960	      0.00000000	      0.00000000	     49.83479601	    -19.11698202	     -5.88534494	     37.59749260	      0.00000000	     -0.77339756	      0.65620004	      4.17273833	      0.00000000	      0.00000000
      3.92500000	      0.83226441	    -23.46662554	      5.79435876	      0.03600413	      0.79647192	     -1.16997403	     54.02577823	    -34.34909055	    -12.73630826	     44.42798538	      0.00000000	      6.34165715	      0.77541462	      5.59296795	      0.00000000	      0.00000000	     50.13365679	    -19.06820216	     -6.18610439	     38.00557084	      0.00000000	     -1.14695743	      0.66332235	      4.27062089	      0.00000000	      0.00000000
      3.93000000	      0.67174154	    -23.39042747	      5.87532943	      0.03534714	      0.79531291	     -1.16992261	     54.43165222	    -34.44066271	    -12.42948696	     44.85203810	      0.00000000	      6.60402523	      0.78281574	      5.68838163	      0.00000000	      0.00000000	     50.21875635	    -19.24062774	     -6.63481106	     38.35378052	      0.00000000	     -1.62058245	      0.66939975	      4.40647560	      0.00000000	      0.00000000
      3.93500000	      0.48289374	    -23.40967651	      6.07062346	      0.03440030	      0.79403168	     -1.16997477	     55.10451716	    -34.57147921	    -11.87856920	     45.34971581	      0.00000000	      6.83950738	      0.79150186	      5.78239640	      0.00000000	      0.00000000	     50.37640756	    -19.34169762	     -7.14976983	     38.71767192	      0.00000000	     -2.04264589	      0.67575085	      4.51423814	      0.00000000	      0.00000000
      3.94000000	      0.41509950	    -23.31867236	      5.98482807	      0.03377767	      0.79295561	     -1.16987360	     55.25691792	    -34.59102779	    -11.87382988	     45.65280305	      0.00000000	      7.06517792	      0.79679173	      5.85218533	      0.00000000	      0.00000000	     50.57415652	    -19.57823308	     -7.31519660	     39.12222850	      0.00000000	     -2.44809297	      0.68281170	      4.63692914	      0.00000000	      0.00000000
      3.94500000	      0.40611138	    -23.32508026	      6.16762623	      0.03285686	      0.79172708	     -1.17003466	     55.75911990	    -34.82814126	    -11.59379423	     46.08165583	      0.00000000	      7.30685885	      0.80427662	      5.92457311	      0.00000000	      0.00000000	     50.81287856	    -19.56341404	     -7.54079319	     39.49046498	      0.00000000	     -2.76240168	      0.68923864	      4.74753351	      0.00000000	      0.00000000
      3.95000000	      0.38266316	    -23.25972147	      6.10312707	      0.03217055	      0.79068228	     -1.17000462	     55.92635315	    -34.88866906	    -11.62373333	     46.38115826	      0.00000000	      7.53282764	      0.80950392	      5.99201487	      0.00000000	      0.00000000	     51.04047631	    -19.73780263	     -7.62392616	     39.86563867	      0.00000000	     -3.11623392	      0.69578665	      4.84866606	      0.00000000	      0.00000000
      3.95500000	      0.42412907	    -23.20331348	      6.00979881	      0.03146635	      0.78965907	     -1.16998062	     56.02956340	    -34.96901634	    -11.77552475	     46.65116103	      0.00000000	      7.76481325	      0.81421636	      6.04774592	      0.00000000	      0.00000000	     51.32083546	    -19.88740130	     -7.57060176	     40.23911678	      0.00000000	     -3.41340978	      0.70230508	      4.93872470	      0.00000000	      0.00000000
      3.96000000	      0.36523484	    -23.53007069	      5.96811875	      0.02973061	      0.78839101	     -1.16993325	     56.81310091	    -34.78159736	    -11.07575798	     47.00130467	      0.00000000	      7.34688804	      0.82032752	      6.01751826	      0.00000000	      0.00000000	     52.04152688	    -20.01625107	     -7.36385621	     40.68647570	      0.00000000	     -3.43159058	      0.71011296	      4.95773289	      0.00000000	      0.00000000
